<svg xmlns="http://www.w3.org/2000/svg" version="1.1" xmlns:xlink="http://www.w3.org/1999/xlink" xmlns:svgjs="http://svgjs.com/svgjs" width="1440" height="560" preserveAspectRatio="none" viewBox="0 0 1440 560"><g mask="url(&quot;#SvgjsMask1002&quot;)" fill="none"><rect width="1440" height="560" x="0" y="0" fill="url(#SvgjsLinearGradient1003)"></rect><path d="M1440 0L746.01 0L1440 129.43z" fill="rgba(255, 255, 255, .1)"></path><path d="M746.01 0L1440 129.43L1440 168.27L689.42 0z" fill="rgba(255, 255, 255, .075)"></path><path d="M689.42 0L1440 168.27L1440 290.99L479.18999999999994 0z" fill="rgba(255, 255, 255, .05)"></path><path d="M479.18999999999994 0L1440 290.99L1440 304.51L194.81999999999994 0z" fill="rgba(255, 255, 255, .025)"></path><path d="M0 560L676.75 560L0 347.38z" fill="rgba(0, 0, 0, .1)"></path><path d="M0 347.38L676.75 560L1060.8600000000001 560L0 314.4z" fill="rgba(0, 0, 0, .075)"></path><path d="M0 314.4L1060.8600000000001 560L1189.43 560L0 256.10999999999996z" fill="rgba(0, 0, 0, .05)"></path><path d="M0 256.11L1189.43 560L1279.53 560L0 174.38z" fill="rgba(0, 0, 0, .025)"></path></g><defs><mask id="SvgjsMask1002"><rect width="1440" height="560" fill="#ffffff"></rect></mask><linearGradient x1="15.28%" y1="-39.29%" x2="84.72%" y2="139.29%" gradientUnits="userSpaceOnUse" id="SvgjsLinearGradient1003"><stop stop-color="#0e2a47" offset="0"></stop><stop stop-color="#00459e" offset="1"></stop></linearGradient></defs></svg>