<?xml version="1.0" encoding="UTF-8" standalone="no"?>
<!-- Generator: Adobe Illustrator 23.0.3, SVG Export Plug-In . SVG Version: 6.00 Build 0)  -->

<svg
   version="1.1"
   id="Icons"
   x="0px"
   y="0px"
   viewBox="0 0 32 32"
   style="enable-background:new 0 0 32 32;"
   xml:space="preserve"
   sodipodi:docname="favicon.svg"
   inkscape:version="1.1 (c68e22c387, 2021-05-23)"
   xmlns:inkscape="http://www.inkscape.org/namespaces/inkscape"
   xmlns:sodipodi="http://sodipodi.sourceforge.net/DTD/sodipodi-0.dtd"
   xmlns="http://www.w3.org/2000/svg"
   xmlns:svg="http://www.w3.org/2000/svg"><defs
   id="defs7" /><sodipodi:namedview
   id="namedview5"
   pagecolor="#ffffff"
   bordercolor="#666666"
   borderopacity="1.0"
   inkscape:pageshadow="2"
   inkscape:pageopacity="0.0"
   inkscape:pagecheckerboard="0"
   showgrid="false"
   inkscape:zoom="24.875"
   inkscape:cx="15.979899"
   inkscape:cy="16"
   inkscape:window-width="1920"
   inkscape:window-height="1000"
   inkscape:window-x="-11"
   inkscape:window-y="-11"
   inkscape:window-maximized="1"
   inkscape:current-layer="Icons" />
<path
   d="M31,12c-0.6,0-1,0.4-1,1c0,5.8-3.6,10.8-8.6,12.9C24.2,23.5,26,20,26,16c0-7.2-5.8-13-13-13S0,8.8,0,16s5.8,13,13,13h3  c8.8,0,16-7.2,16-16C32,12.4,31.6,12,31,12z M5.9,8.9C7,7.7,9,7.7,10.1,8.9c0,0,0,0,0,0s0,0,0,0C10.7,9.4,11,10.2,11,11  s-0.3,1.6-0.9,2.1C9.6,13.7,8.8,14,8,14s-1.6-0.3-2.1-0.9C5.3,12.6,5,11.8,5,11S5.3,9.4,5.9,8.9z M10.1,23.1C9.6,23.7,8.8,24,8,24  s-1.6-0.3-2.1-0.9C5.3,22.6,5,21.8,5,21s0.3-1.6,0.9-2.1c0,0,0,0,0,0s0,0,0,0c1.1-1.1,3.1-1.1,4.2,0c0.6,0.6,0.9,1.3,0.9,2.1  S10.7,22.6,10.1,23.1z M10.9,18.1C10.3,17.6,10,16.8,10,16s0.3-1.6,0.9-2.1c1.1-1.1,3.1-1.1,4.2,0c0,0,0,0,0,0s0,0,0,0  c0.6,0.6,0.9,1.3,0.9,2.1s-0.3,1.6-0.9,2.1C14.6,18.7,13.8,19,13,19S11.4,18.7,10.9,18.1z M20.1,23.1C19.6,23.7,18.8,24,18,24  s-1.6-0.3-2.1-0.9c0,0,0,0,0,0s0,0,0,0C15.3,22.6,15,21.8,15,21s0.3-1.6,0.9-2.1c1.1-1.1,3.1-1.1,4.2,0c0.6,0.6,0.9,1.3,0.9,2.1  S20.7,22.6,20.1,23.1z M20.1,13.1C20.1,13.1,20.1,13.1,20.1,13.1C20.1,13.1,20.1,13.1,20.1,13.1C19.6,13.7,18.8,14,18,14  s-1.6-0.3-2.1-0.9C15.3,12.6,15,11.8,15,11s0.3-1.6,0.9-2.1c1.1-1.1,3.1-1.1,4.2,0C20.7,9.4,21,10.2,21,11S20.7,12.6,20.1,13.1z"
   id="path2"
   style="fill:#ff5555" />
</svg>
